<svg width="162" height="53" viewBox="0 0 162 53" fill="none" xmlns="http://www.w3.org/2000/svg">
<g style="mix-blend-mode:screen">
<path d="M49.496 21.056L48.024 22.432V28H44.824V6.592H47.992H48.312V6.88C48.184 7.008 48.0987 7.14667 48.056 7.296C48.0347 7.44533 48.024 7.70133 48.024 8.064V19.04L54.296 13.088C54.4453 13.1307 54.6053 13.1627 54.776 13.184C54.9467 13.2053 55.1173 13.2267 55.288 13.248C55.48 13.248 55.6613 13.2587 55.832 13.28C56.0027 13.28 56.152 13.28 56.28 13.28H57.72L51.736 19.104L58.584 28L54.872 28.128L49.496 21.056ZM65.464 28.352C63.8213 28.352 62.5413 27.9787 61.624 27.232C60.728 26.464 60.28 25.472 60.28 24.256C60.28 23.4453 60.4613 22.72 60.824 22.08C61.208 21.4187 61.7413 20.8533 62.424 20.384C63.128 19.9147 63.9707 19.552 64.952 19.296C65.9333 19.0187 67.0427 18.88 68.28 18.88C68.536 18.88 68.8027 18.8907 69.08 18.912C69.3787 18.912 69.688 18.9227 70.008 18.944C70.3493 18.9653 70.6907 18.9867 71.032 19.008L71.128 21.28C70.8293 21.2373 70.5093 21.2053 70.168 21.184C69.848 21.1627 69.528 21.152 69.208 21.152C68.888 21.152 68.5893 21.152 68.312 21.152C67.48 21.152 66.7547 21.216 66.136 21.344C65.5387 21.4507 65.0373 21.6213 64.632 21.856C64.248 22.0907 63.96 22.3787 63.768 22.72C63.576 23.0613 63.48 23.456 63.48 23.904C63.48 24.2667 63.544 24.5867 63.672 24.864C63.8 25.12 63.9707 25.3227 64.184 25.472C64.4187 25.6213 64.6853 25.7387 64.984 25.824C65.304 25.888 65.6453 25.92 66.008 25.92C66.712 25.92 67.3307 25.8027 67.864 25.568C68.3973 25.3333 68.8453 24.992 69.208 24.544C69.592 24.0747 69.88 23.4987 70.072 22.816C70.264 22.112 70.36 21.2907 70.36 20.352C70.36 19.0507 70.2107 18.0373 69.912 17.312C69.6347 16.5867 69.2187 16.0853 68.664 15.808C68.1093 15.5307 67.416 15.392 66.584 15.392C65.9013 15.392 65.24 15.5093 64.6 15.744C63.9813 15.9573 63.3733 16.3627 62.776 16.96L61.08 15.04C61.8907 14.272 62.776 13.7173 63.736 13.376C64.7173 13.0347 65.72 12.864 66.744 12.864C67.6827 12.864 68.5467 12.9813 69.336 13.216C70.1467 13.4293 70.8507 13.792 71.448 14.304C72.0667 14.816 72.536 15.5093 72.856 16.384C73.1973 17.2587 73.368 18.368 73.368 19.712V28H70.04V26.176C69.7627 26.6027 69.4533 26.9653 69.112 27.264C68.7707 27.5413 68.3973 27.7653 67.992 27.936C67.608 28.0853 67.2027 28.192 66.776 28.256C66.3493 28.32 65.912 28.352 65.464 28.352ZM81.88 28.352C81.2827 28.352 80.7173 28.2667 80.184 28.096C79.672 27.9467 79.2027 27.7013 78.776 27.36C78.3493 27.0187 77.976 26.592 77.656 26.08C77.3573 25.568 77.1227 24.9493 76.952 24.224C76.8027 23.4987 76.728 22.6773 76.728 21.76L76.76 13.184H79.896V21.76C79.896 22.5067 79.96 23.1467 80.088 23.68C80.2373 24.192 80.4293 24.608 80.664 24.928C80.92 25.248 81.208 25.4827 81.528 25.632C81.848 25.76 82.1893 25.824 82.552 25.824C83.0213 25.824 83.4587 25.7387 83.864 25.568C84.2693 25.3973 84.6213 25.1413 84.92 24.8C85.24 24.4373 85.4747 23.9893 85.624 23.456C85.7947 22.9013 85.88 22.2613 85.88 21.536V13.184H89.08V25.664C89.08 26.0907 89.0907 26.496 89.112 26.88C89.1547 27.2427 89.2507 27.616 89.4 28H86.424C86.3173 27.7653 86.2427 27.5413 86.2 27.328C86.1573 27.0933 86.1253 26.8693 86.104 26.656C86.104 26.4213 86.104 26.1867 86.104 25.952C85.8907 26.3573 85.624 26.7093 85.304 27.008C85.0053 27.3067 84.664 27.5627 84.28 27.776C83.9173 27.968 83.5333 28.1067 83.128 28.192C82.744 28.2987 82.328 28.352 81.88 28.352Z" fill="#1A8DFF"/>
<path d="M99.992 28.352C98.904 28.352 97.88 28.1493 96.92 27.744C95.9813 27.3387 95.1493 26.72 94.424 25.888C93.6987 25.056 93.1227 24 92.696 22.72C92.2907 21.44 92.088 19.9147 92.088 18.144C92.088 16.5867 92.2373 15.232 92.536 14.08C92.856 12.9067 93.2827 11.9253 93.816 11.136C94.3493 10.3253 94.9573 9.68533 95.64 9.216C96.3227 8.72533 97.0373 8.37333 97.784 8.16C98.5307 7.92533 99.2773 7.808 100.024 7.808C101.517 7.808 102.787 8.16 103.832 8.864C104.899 9.54667 105.699 10.496 106.232 11.712L104.088 13.152L103.832 13.312L103.672 13.088C103.715 12.9173 103.704 12.7573 103.64 12.608C103.597 12.4373 103.48 12.2133 103.288 11.936C102.819 11.3173 102.317 10.9013 101.784 10.688C101.251 10.4747 100.707 10.368 100.152 10.368C99.4693 10.368 98.8187 10.5387 98.2 10.88C97.6027 11.2 97.08 11.68 96.632 12.32C96.184 12.96 95.832 13.76 95.576 14.72C95.32 15.6587 95.192 16.7467 95.192 17.984C95.192 19.1787 95.3093 20.256 95.544 21.216C95.8 22.1547 96.1413 22.9653 96.568 23.648C97.016 24.3093 97.528 24.8213 98.104 25.184C98.7013 25.5253 99.3413 25.696 100.024 25.696C100.557 25.696 101.048 25.6213 101.496 25.472C101.944 25.3227 102.36 25.0773 102.744 24.736C103.128 24.3733 103.469 23.9467 103.768 23.456L106.008 25.024C105.304 26.1973 104.461 27.0507 103.48 27.584C102.499 28.096 101.336 28.352 99.992 28.352ZM115 28.32C113.656 28.32 112.461 28 111.416 27.36C110.371 26.6987 109.539 25.792 108.92 24.64C108.301 23.4667 107.992 22.1227 107.992 20.608C107.992 19.1147 108.301 17.792 108.92 16.64C109.539 15.4667 110.371 14.5493 111.416 13.888C112.461 13.2053 113.656 12.864 115 12.864C116.323 12.864 117.507 13.2053 118.552 13.888C119.619 14.5493 120.461 15.4667 121.08 16.64C121.699 17.792 122.008 19.1147 122.008 20.608C122.008 22.1013 121.699 23.4347 121.08 24.608C120.461 25.76 119.619 26.6667 118.552 27.328C117.507 27.9893 116.323 28.32 115 28.32ZM115 25.728C115.725 25.728 116.365 25.5147 116.92 25.088C117.496 24.64 117.944 24.032 118.264 23.264C118.584 22.496 118.744 21.6 118.744 20.576C118.744 19.5307 118.584 18.624 118.264 17.856C117.944 17.088 117.496 16.4907 116.92 16.064C116.365 15.6373 115.725 15.424 115 15.424C114.275 15.424 113.624 15.6373 113.048 16.064C112.493 16.4907 112.056 17.088 111.736 17.856C111.416 18.624 111.256 19.5307 111.256 20.576C111.256 21.6 111.416 22.496 111.736 23.264C112.056 24.032 112.493 24.64 113.048 25.088C113.624 25.5147 114.275 25.728 115 25.728ZM130.296 28.352C129.507 28.352 128.739 28.192 127.992 27.872C127.267 27.5307 126.616 27.04 126.04 26.4C125.464 25.76 125.005 24.9493 124.664 23.968C124.344 22.9653 124.184 21.8133 124.184 20.512C124.184 19.1893 124.344 18.048 124.664 17.088C125.005 16.128 125.464 15.3387 126.04 14.72C126.616 14.08 127.277 13.6107 128.024 13.312C128.771 12.992 129.549 12.832 130.36 12.832C130.936 12.832 131.459 12.9067 131.928 13.056C132.419 13.2053 132.856 13.4293 133.24 13.728C133.624 14.0267 133.933 14.4 134.168 14.848V6.592H137.272H137.56V6.88C137.453 7.008 137.379 7.14667 137.336 7.296C137.293 7.44533 137.283 7.70133 137.304 8.064V25.92C137.304 26.2613 137.315 26.6133 137.336 26.976C137.379 27.3173 137.475 27.6587 137.624 28H134.488C134.381 27.7653 134.307 27.552 134.264 27.36C134.221 27.168 134.2 26.976 134.2 26.784C134.2 26.592 134.2 26.3893 134.2 26.176C133.901 26.624 133.56 27.0187 133.176 27.36C132.792 27.68 132.355 27.9253 131.864 28.096C131.373 28.2667 130.851 28.352 130.296 28.352ZM130.84 25.728C131.416 25.728 131.907 25.6107 132.312 25.376C132.717 25.1413 133.048 24.8 133.304 24.352C133.56 23.904 133.752 23.36 133.88 22.72C134.008 22.08 134.072 21.3547 134.072 20.544C134.072 19.456 133.955 18.528 133.72 17.76C133.485 16.9707 133.112 16.3733 132.6 15.968C132.109 15.5413 131.48 15.328 130.712 15.328C130.157 15.328 129.667 15.4453 129.24 15.68C128.813 15.9147 128.451 16.256 128.152 16.704C127.875 17.1307 127.661 17.6533 127.512 18.272C127.363 18.8907 127.288 19.584 127.288 20.352C127.288 21.44 127.437 22.3893 127.736 23.2C128.056 24.0107 128.483 24.64 129.016 25.088C129.549 25.5147 130.157 25.728 130.84 25.728Z" fill="#AEDAFF"/>
</g>
<path fill-rule="evenodd" clip-rule="evenodd" d="M27.5823 5.13388C27.8978 4.33612 27.5141 3.43078 26.7252 3.11167C25.9363 2.7926 25.041 3.18059 24.7254 3.97835L12.4177 35.092C12.1022 35.8898 12.4859 36.7952 13.2748 37.1141C14.0637 37.4333 14.959 37.0453 15.2746 36.2476L27.5823 5.13388ZM8.78015 12.7902C9.38098 13.3977 9.38098 14.3827 8.78015 14.9902L3.71418 20.113L8.78015 25.2357C9.38098 25.8432 9.38098 26.8282 8.78015 27.4357C8.17935 28.0432 7.20526 28.0432 6.60446 27.4357L0.450614 21.213C-0.150205 20.6055 -0.150205 19.6205 0.450614 19.0129L6.60446 12.7902C7.20526 12.1827 8.17935 12.1827 8.78015 12.7902ZM31.2197 12.7902C31.8206 12.1827 32.7948 12.1827 33.3957 12.7902L39.5495 19.0129C40.1502 19.6205 40.1502 20.6055 39.5495 21.213L33.3957 27.4357C32.7948 28.0432 31.8206 28.0432 31.2197 27.4357C30.6191 26.8282 30.6191 25.8432 31.2197 25.2357L36.2858 20.113L31.2197 14.9902C30.6191 14.3827 30.6191 13.3977 31.2197 12.7902Z" fill="#AEDAFF"/>
<g filter="url(#filter0_d_3_19)">
<path d="M105.584 34.592H107.232L107.2 36.704L107.008 36.528C107.061 36.208 107.163 35.92 107.312 35.664C107.461 35.3973 107.643 35.1733 107.856 34.992C108.08 34.8107 108.325 34.672 108.592 34.576C108.859 34.4693 109.136 34.416 109.424 34.416C109.829 34.416 110.197 34.4853 110.528 34.624C110.859 34.7627 111.157 34.9707 111.424 35.248L110.752 36.56L110.688 36.704L110.56 36.64C110.528 36.5547 110.496 36.4693 110.464 36.384C110.432 36.2987 110.352 36.1973 110.224 36.08C110.064 35.9733 109.904 35.8933 109.744 35.84C109.595 35.7867 109.419 35.76 109.216 35.76C108.96 35.76 108.709 35.808 108.464 35.904C108.229 35.9893 108.016 36.128 107.824 36.32C107.632 36.512 107.477 36.7573 107.36 37.056C107.253 37.344 107.2 37.696 107.2 38.112V42.016H105.584V34.592ZM116.336 42.176C115.803 42.176 115.312 42.0907 114.864 41.92C114.416 41.7493 114.027 41.504 113.696 41.184C113.376 40.8533 113.125 40.448 112.944 39.968C112.763 39.488 112.672 38.944 112.672 38.336C112.672 37.7173 112.763 37.168 112.944 36.688C113.125 36.1973 113.371 35.7867 113.68 35.456C114 35.1253 114.368 34.8693 114.784 34.688C115.211 34.5067 115.664 34.416 116.144 34.416C116.56 34.416 116.955 34.4907 117.328 34.64C117.712 34.7893 118.043 35.0133 118.32 35.312C118.608 35.6 118.832 35.968 118.992 36.416C119.163 36.864 119.248 37.3867 119.248 37.984C119.248 38.0907 119.248 38.2133 119.248 38.352C119.248 38.48 119.243 38.592 119.232 38.688H114.208C114.229 39.072 114.304 39.408 114.432 39.696C114.56 39.9733 114.72 40.2027 114.912 40.384C115.115 40.5653 115.344 40.6987 115.6 40.784C115.856 40.8693 116.123 40.912 116.4 40.912C116.645 40.912 116.869 40.8907 117.072 40.848C117.285 40.7947 117.488 40.7147 117.68 40.608C117.872 40.5013 118.048 40.3573 118.208 40.176L119.04 40.992C118.816 41.2587 118.565 41.4827 118.288 41.664C118.011 41.8347 117.707 41.9627 117.376 42.048C117.056 42.1333 116.709 42.176 116.336 42.176ZM114.24 37.488H117.696C117.696 37.1893 117.659 36.928 117.584 36.704C117.509 36.48 117.397 36.288 117.248 36.128C117.109 35.968 116.939 35.8507 116.736 35.776C116.533 35.6907 116.309 35.648 116.064 35.648C115.829 35.648 115.611 35.6853 115.408 35.76C115.216 35.8347 115.04 35.9467 114.88 36.096C114.72 36.2453 114.581 36.4373 114.464 36.672C114.357 36.896 114.283 37.168 114.24 37.488ZM124.784 42.144C124.347 42.144 123.968 42.0747 123.648 41.936C123.339 41.7867 123.088 41.552 122.896 41.232C122.715 40.912 122.587 40.496 122.512 39.984C122.437 39.472 122.411 38.848 122.432 38.112L122.64 32.8L124.272 32.592L124.432 32.576L124.448 32.72C124.395 32.7947 124.347 32.8693 124.304 32.944C124.272 33.0187 124.245 33.1467 124.224 33.328L124.064 35.392L124.128 35.568L124.016 38.112C123.984 38.8373 124.005 39.4027 124.08 39.808C124.155 40.2027 124.283 40.48 124.464 40.64C124.645 40.7893 124.864 40.864 125.12 40.864C125.461 40.864 125.765 40.7947 126.032 40.656C126.309 40.5173 126.581 40.3467 126.848 40.144L127.2 41.328C126.837 41.5947 126.459 41.7973 126.064 41.936C125.669 42.0747 125.243 42.144 124.784 42.144ZM120.992 34.592H126.576L126.56 35.872H120.992V34.592ZM131.44 42.176C131.141 42.176 130.859 42.1333 130.592 42.048C130.336 41.9733 130.101 41.8507 129.888 41.68C129.675 41.5093 129.488 41.296 129.328 41.04C129.179 40.784 129.061 40.4747 128.976 40.112C128.901 39.7493 128.864 39.3387 128.864 38.88L128.88 34.592H130.448V38.88C130.448 39.2533 130.48 39.5733 130.544 39.84C130.619 40.096 130.715 40.304 130.832 40.464C130.96 40.624 131.104 40.7413 131.264 40.816C131.424 40.88 131.595 40.912 131.776 40.912C132.011 40.912 132.229 40.8693 132.432 40.784C132.635 40.6987 132.811 40.5707 132.96 40.4C133.12 40.2187 133.237 39.9947 133.312 39.728C133.397 39.4507 133.44 39.1307 133.44 38.768V34.592H135.04V40.832C135.04 41.0453 135.045 41.248 135.056 41.44C135.077 41.6213 135.125 41.808 135.2 42H133.712C133.659 41.8827 133.621 41.7707 133.6 41.664C133.579 41.5467 133.563 41.4347 133.552 41.328C133.552 41.2107 133.552 41.0933 133.552 40.976C133.445 41.1787 133.312 41.3547 133.152 41.504C133.003 41.6533 132.832 41.7813 132.64 41.888C132.459 41.984 132.267 42.0533 132.064 42.096C131.872 42.1493 131.664 42.176 131.44 42.176ZM137.584 34.592H139.232L139.2 36.704L139.008 36.528C139.061 36.208 139.163 35.92 139.312 35.664C139.461 35.3973 139.643 35.1733 139.856 34.992C140.08 34.8107 140.325 34.672 140.592 34.576C140.859 34.4693 141.136 34.416 141.424 34.416C141.829 34.416 142.197 34.4853 142.528 34.624C142.859 34.7627 143.157 34.9707 143.424 35.248L142.752 36.56L142.688 36.704L142.56 36.64C142.528 36.5547 142.496 36.4693 142.464 36.384C142.432 36.2987 142.352 36.1973 142.224 36.08C142.064 35.9733 141.904 35.8933 141.744 35.84C141.595 35.7867 141.419 35.76 141.216 35.76C140.96 35.76 140.709 35.808 140.464 35.904C140.229 35.9893 140.016 36.128 139.824 36.32C139.632 36.512 139.477 36.7573 139.36 37.056C139.253 37.344 139.2 37.696 139.2 38.112V42.016H137.584V34.592ZM144.96 42V34.592H146.56V35.728C146.741 35.4613 146.944 35.232 147.168 35.04C147.392 34.848 147.643 34.6987 147.92 34.592C148.197 34.4747 148.496 34.416 148.816 34.416C149.232 34.416 149.616 34.5227 149.968 34.736C150.32 34.9493 150.603 35.2853 150.816 35.744C151.029 36.192 151.136 36.7893 151.136 37.536V42H149.552V37.552C149.552 37.1147 149.504 36.7573 149.408 36.48C149.312 36.2027 149.173 36 148.992 35.872C148.821 35.744 148.613 35.68 148.368 35.68C148.155 35.68 147.941 35.728 147.728 35.824C147.515 35.92 147.317 36.0533 147.136 36.224C146.965 36.384 146.827 36.5867 146.72 36.832C146.613 37.0667 146.56 37.3333 146.56 37.632V42H144.96Z" fill="#FF24BD" fill-opacity="0.6" shape-rendering="crispEdges"/>
<path d="M155.328 44.72L154.496 44.016C154.795 43.7387 155.029 43.456 155.2 43.168C155.371 42.88 155.456 42.64 155.456 42.448C155.456 42.3307 155.419 42.2187 155.344 42.112C155.269 42.016 155.179 41.92 155.072 41.824C154.965 41.728 154.875 41.616 154.8 41.488C154.725 41.3493 154.688 41.1947 154.688 41.024C154.688 40.8107 154.736 40.6293 154.832 40.48C154.939 40.32 155.077 40.1973 155.248 40.112C155.429 40.016 155.621 39.968 155.824 39.968C156.197 39.968 156.501 40.112 156.736 40.4C156.971 40.6773 157.088 41.04 157.088 41.488C157.088 41.808 157.024 42.1387 156.896 42.48C156.768 42.8213 156.576 43.1733 156.32 43.536C156.064 43.9093 155.733 44.304 155.328 44.72ZM155.776 37.264C155.477 37.264 155.216 37.152 154.992 36.928C154.768 36.704 154.656 36.4427 154.656 36.144C154.656 35.8453 154.768 35.584 154.992 35.36C155.216 35.136 155.477 35.024 155.776 35.024C156.064 35.024 156.325 35.136 156.56 35.36C156.795 35.5733 156.912 35.8347 156.912 36.144C156.912 36.4427 156.8 36.704 156.576 36.928C156.363 37.152 156.096 37.264 155.776 37.264Z" fill="white" shape-rendering="crispEdges"/>
</g>
<rect x="140" y="3" width="3" height="25" rx="1.5" fill="#AEDAFF"/>
<rect x="142" y="28" width="3" height="14" rx="1.5" transform="rotate(-90 142 28)" fill="#AEDAFF"/>
<rect x="142" y="17" width="3" height="10" rx="1.5" transform="rotate(-90 142 17)" fill="#AEDAFF"/>
<rect x="140" y="6" width="3" height="15.75" rx="1.5" transform="rotate(-90 140 6)" fill="#AEDAFF"/>
<defs>
<filter id="filter0_d_3_19" x="101.584" y="32.576" width="59.504" height="20.144" filterUnits="userSpaceOnUse" color-interpolation-filters="sRGB">
<feFlood flood-opacity="0" result="BackgroundImageFix"/>
<feColorMatrix in="SourceAlpha" type="matrix" values="0 0 0 0 0 0 0 0 0 0 0 0 0 0 0 0 0 0 127 0" result="hardAlpha"/>
<feOffset dy="4"/>
<feGaussianBlur stdDeviation="2"/>
<feComposite in2="hardAlpha" operator="out"/>
<feColorMatrix type="matrix" values="0 0 0 0 0 0 0 0 0 0 0 0 0 0 0 0 0 0 0.25 0"/>
<feBlend mode="normal" in2="BackgroundImageFix" result="effect1_dropShadow_3_19"/>
<feBlend mode="normal" in="SourceGraphic" in2="effect1_dropShadow_3_19" result="shape"/>
</filter>
</defs>
</svg>
